<svg xmlns="http://www.w3.org/2000/svg" width="53.003" height="55.627" viewBox="0 0 53.003 55.627">
  <g id="filtter" transform="translate(3.126 0.735)">
    <path id="Path_80" data-name="Path 80" d="M14.853,29.984V2.023a2.033,2.033,0,0,0-4.065,0V29.984a7.879,7.879,0,0,0,0,15.248V51.5a2.033,2.033,0,0,0,4.065,0V45.231a7.88,7.88,0,0,0,0-15.248ZM12.82,41.462a3.854,3.854,0,1,1,3.854-3.852A3.858,3.858,0,0,1,12.82,41.462Z" transform="translate(10.554 0.316)" fill="#b6bed4" stroke="#b6bed4" stroke-width="1"/>
    <path id="Path_81" data-name="Path 81" d="M28.268,15.254A7.914,7.914,0,0,0,22.377,7.63V2.248a2.033,2.033,0,0,0-4.065,0V7.63a7.881,7.881,0,0,0,0,15.25V51.728a2.033,2.033,0,1,0,4.065,0V22.88A7.915,7.915,0,0,0,28.268,15.254ZM20.344,19.11A3.855,3.855,0,1,1,24.2,15.254,3.862,3.862,0,0,1,20.344,19.11Z" transform="translate(21.109 0.631)" fill="#b6bed4" stroke="#b6bed4" stroke-width="1"/>
    <path id="Path_82" data-name="Path 82" d="M7.329,7.182V1.8a2.033,2.033,0,1,0-4.065,0V7.182a7.879,7.879,0,0,0,0,15.248V51.278a2.033,2.033,0,0,0,4.065,0V22.43a7.879,7.879,0,0,0,0-15.248ZM5.3,18.663A3.855,3.855,0,1,1,9.15,14.806,3.86,3.86,0,0,1,5.3,18.663Z" transform="translate(0 0)" fill="#b6bed4" stroke="#b6bed4" stroke-width="1"/>
  </g>
</svg>
