<svg xmlns="http://www.w3.org/2000/svg" width="58.987" height="54.068" viewBox="0 0 58.987 54.068">
  <path id="img_home" d="M269.484,143.189l-27.242-22.7a1.953,1.953,0,0,0-2.465,0l-27.242,22.7a1.953,1.953,0,0,0-.259,2.724,2.011,2.011,0,0,0,2.724.259l5.254-4.346V165.7c0,4.346,3.827,7.848,8.562,7.848h24.323c4.735,0,8.562-3.5,8.562-7.848V141.827l5.254,4.346a1.819,1.819,0,0,0,1.232.454,1.939,1.939,0,0,0,1.492-.713A1.837,1.837,0,0,0,269.484,143.189ZM236.47,169.523V155.9a1.911,1.911,0,0,1,1.946-1.946H243.6a1.911,1.911,0,0,1,1.946,1.946v13.621Zm21.4-3.762c0,2.205-2.076,3.957-4.67,3.957h-3.762V155.9a5.813,5.813,0,0,0-5.838-5.837h-5.189a5.813,5.813,0,0,0-5.837,5.837v13.751h-3.762c-2.594,0-4.67-1.751-4.67-3.957V138.584l16.864-14.075,16.864,14.075Z" transform="translate(-211.459 -119.726)" fill="#6e7faa" stroke="#6e7faa" stroke-width="0.5"/>
</svg>
