<svg xmlns="http://www.w3.org/2000/svg" width="43.616" height="50.303" viewBox="0 0 43.616 50.303">
  <g id="img_notification" transform="translate(0.5 0.5)">
    <g id="Group_239" data-name="Group 239" transform="translate(0 0)">
      <path id="Path_87" data-name="Path 87" d="M892.075,162.633a4.923,4.923,0,0,1-4.925,4.917H854.385a4.917,4.917,0,1,1-.006-9.835s0-13.243,0-13.243a16.391,16.391,0,0,1,32.782,0v13.242A4.924,4.924,0,0,1,892.075,162.633Zm-4.919-1.639a3.275,3.275,0,0,1-3.276-3.28V144.472a13.113,13.113,0,0,0-26.225,0v13.242a3.28,3.28,0,0,1-3.277,3.28,1.639,1.639,0,1,0,.006,3.278H887.15a1.639,1.639,0,1,0,.006-3.278Zm-23.765,9.015h3.278a4.1,4.1,0,0,0,8.2,0h3.278a7.376,7.376,0,0,1-14.752,0Z" transform="translate(-849.459 -128.082)" fill="#6e7faa" stroke="#6e7faa" stroke-miterlimit="10" stroke-width="1"/>
    </g>
  </g>
</svg>
