<svg xmlns="http://www.w3.org/2000/svg" width="58.355" height="53.494" viewBox="0 0 58.355 53.494">
  <path id="img_home_s" d="M380.418,143.189l-27.242-22.7a1.953,1.953,0,0,0-2.465,0l-27.242,22.7a1.953,1.953,0,0,0-.259,2.724,2.011,2.011,0,0,0,2.724.259l5.254-4.346V165.7c0,4.346,3.827,7.848,8.562,7.848h24.323c4.735,0,8.562-3.5,8.562-7.848V141.827l5.254,4.346a1.819,1.819,0,0,0,1.232.454,1.939,1.939,0,0,0,1.492-.713A1.837,1.837,0,0,0,380.418,143.189ZM347.4,169.523V155.9a1.911,1.911,0,0,1,1.946-1.946h5.189a1.911,1.911,0,0,1,1.946,1.946v13.621Z" transform="translate(-322.774 -120.05)" fill="#5663ff"/>
</svg>
